<svg width="443" height="198" viewBox="0 0 443 198" fill="none" xmlns="http://www.w3.org/2000/svg">
<path d="M99.3 64.2002V49.6002C99.3 44.3002 96.1 39.6002 91.2 37.5002L0.700012 0.200195V8.3002L81.4 41.6002C84.2 42.7002 84.2 46.7002 81.4 47.8002L0.700012 81.1002V113.6L49.3 93.5002L81.3 106.7C84.1 107.8 84.1 111.8 81.3 112.9L0.700012 146.2V197.7L91.2 160.4C96.1 158.4 99.3 153.6 99.3 148.3V114.8C99.3 109.5 96.1 104.8 91.2 102.7L59.1 89.5002L91.2 76.3002C96.1 74.3002 99.3 69.5002 99.3 64.2002Z" fill="white"/>
<path d="M145.3 73.1006L159.5 128.401L175.4 73.1006H190.6L205.6 128.401L220.4 73.1006H231.6L212.5 139.801H198.3L182.6 82.3006L166.3 139.801H151.9L133.4 73.1006H145.3Z" fill="white"/>
<path d="M248.7 109.7C249.1 115.2 249.7 118 251.5 121.5C254.8 127.8 262.3 131.9 269.8 131.9C278.9 131.9 284.8 127.6 287.3 119.1H299.7C296.6 133.5 285.7 141.5 269.6 141.5C249.5 141.5 236.7 127.7 236.7 106.1C236.7 85.0004 249.5 70.9004 268.6 70.9004C288.9 70.9004 299.9 84.7004 299.9 109.5H248.7V109.7ZM284.5 89.3004C281.4 84.0004 275.1 80.8004 268.6 80.8004C257.4 80.8004 250.3 87.9004 248.9 100.7H287.7C287.1 94.8004 286.3 92.0004 284.5 89.3004Z" fill="white"/>
<path d="M311.1 47.7002H322.5V83.1002C327.2 75.2002 333.7 71.5002 343.2 71.5002C359.7 71.5002 371.5 85.9002 371.5 106.5C371.5 127.1 360.3 141.1 343.3 141.1C334 141.1 327.9 137.4 322 128.7V139.7H311V47.7002H311.1ZM322.7 106.2C322.7 120.8 331 131.6 341.8 131.6C352.2 131.6 359.1 121.8 359.1 106.6C359.1 90.7002 352.2 80.8002 341.4 80.8002C330.6 80.8002 322.7 91.2002 322.7 106.2Z" fill="white"/>
<path d="M392.2 111.7C392 123.5 399.5 131.2 411.3 131.2C421.9 131.2 429.6 124.5 429.6 115.3C429.6 105.9 422.3 100.1 410.5 100.1C409.3 100.1 408.3 100.1 406.6 100.3V90.0998C408 90.0998 408.8 90.0998 409.6 90.0998C421.8 90.0998 428.9 84.7998 428.9 75.2998C428.9 66.3998 422 60.6998 411.6 60.6998C400.4 60.6998 393.9 67.3998 393.5 79.1998H381.3C382.1 60.8998 393.3 50.2998 411.8 50.2998C428.9 50.2998 440.9 60.0998 440.9 74.2998C440.9 83.6998 434.2 92.3998 425.2 94.7998C436.2 97.5998 442.1 105 442.1 116.1C442.1 131.1 429.3 141.7 411.2 141.7C392.3 141.7 379.5 129.5 379.7 111.8C379.6 111.7 392.2 111.7 392.2 111.7Z" fill="white"/>
</svg>
